<mxfile host="65bd71144e" scale="1" border="10">
    <diagram id="59DvSauhzj3vqoOBRgNi" name="iterator">
        <mxGraphModel dx="1632" dy="851" grid="1" gridSize="10" guides="1" tooltips="1" connect="1" arrows="1" fold="1" page="1" pageScale="1" pageWidth="827" pageHeight="1169" background="#FFFFFF" math="0" shadow="0">
            <root>
                <mxCell id="w9Iu98WscyFDLbroQzuf-0"/>
                <mxCell id="w9Iu98WscyFDLbroQzuf-1" parent="w9Iu98WscyFDLbroQzuf-0"/>
                <mxCell id="Yrwoq0YL18L5McrpzAKP-1" value="std::vector::push_front()" style="text;strokeColor=#666666;fillColor=#f5f5f5;html=1;fontSize=24;fontStyle=1;verticalAlign=middle;align=center;shadow=0;labelBorderColor=none;fontColor=#333333;" parent="w9Iu98WscyFDLbroQzuf-1" vertex="1">
                    <mxGeometry x="235" y="250" width="305" height="40" as="geometry"/>
                </mxCell>
                <mxCell id="72" style="edgeStyle=orthogonalEdgeStyle;curved=1;html=1;exitX=0.5;exitY=1;exitDx=0;exitDy=0;entryX=0.394;entryY=1.05;entryDx=0;entryDy=0;entryPerimeter=0;fillColor=#f5f5f5;strokeColor=#666666;" parent="w9Iu98WscyFDLbroQzuf-1" source="Yrwoq0YL18L5McrpzAKP-21" target="Yrwoq0YL18L5McrpzAKP-22" edge="1">
                    <mxGeometry relative="1" as="geometry">
                        <mxPoint x="390" y="390" as="targetPoint"/>
                        <Array as="points">
                            <mxPoint x="308" y="410"/>
                            <mxPoint x="379" y="410"/>
                        </Array>
                    </mxGeometry>
                </mxCell>
                <mxCell id="Yrwoq0YL18L5McrpzAKP-21" value="value0" style="rounded=0;whiteSpace=wrap;html=1;shadow=0;labelBorderColor=none;strokeColor=#82b366;fillColor=#d5e8d4;fontColor=#000000;" parent="w9Iu98WscyFDLbroQzuf-1" vertex="1">
                    <mxGeometry x="267.5" y="340" width="80" height="40" as="geometry"/>
                </mxCell>
                <mxCell id="74" style="edgeStyle=orthogonalEdgeStyle;curved=1;html=1;exitX=0.5;exitY=1;exitDx=0;exitDy=0;fillColor=#f5f5f5;strokeColor=#666666;entryX=0.406;entryY=1.025;entryDx=0;entryDy=0;entryPerimeter=0;" parent="w9Iu98WscyFDLbroQzuf-1" source="Yrwoq0YL18L5McrpzAKP-22" target="Yrwoq0YL18L5McrpzAKP-24" edge="1">
                    <mxGeometry relative="1" as="geometry">
                        <mxPoint x="470" y="390" as="targetPoint"/>
                        <Array as="points">
                            <mxPoint x="388" y="410"/>
                            <mxPoint x="460" y="410"/>
                        </Array>
                    </mxGeometry>
                </mxCell>
                <mxCell id="Yrwoq0YL18L5McrpzAKP-22" value="value1" style="rounded=0;whiteSpace=wrap;html=1;shadow=0;labelBorderColor=none;strokeColor=#82b366;fillColor=#d5e8d4;fontColor=#000000;" parent="w9Iu98WscyFDLbroQzuf-1" vertex="1">
                    <mxGeometry x="347.5" y="340" width="80" height="40" as="geometry"/>
                </mxCell>
                <mxCell id="Yrwoq0YL18L5McrpzAKP-24" value="" style="rounded=0;whiteSpace=wrap;html=1;shadow=0;labelBorderColor=none;strokeColor=#666666;fillColor=#f5f5f5;fontColor=#333333;" parent="w9Iu98WscyFDLbroQzuf-1" vertex="1">
                    <mxGeometry x="427.5" y="340" width="80" height="40" as="geometry"/>
                </mxCell>
                <mxCell id="0" value="push_front()" style="text;html=1;align=center;verticalAlign=middle;resizable=0;points=[];autosize=1;strokeColor=#666666;fillColor=#f5f5f5;fontColor=#333333;fontSize=18;" parent="w9Iu98WscyFDLbroQzuf-1" vertex="1">
                    <mxGeometry x="332.5" y="300" width="110" height="30" as="geometry"/>
                </mxCell>
                <mxCell id="68" value="" style="edgeStyle=none;html=1;entryX=0;entryY=1;entryDx=0;entryDy=0;fillColor=#f5f5f5;strokeColor=#666666;" parent="w9Iu98WscyFDLbroQzuf-1" source="56" target="Yrwoq0YL18L5McrpzAKP-21" edge="1">
                    <mxGeometry relative="1" as="geometry"/>
                </mxCell>
                <mxCell id="56" value="push_front(value2)" style="rounded=0;whiteSpace=wrap;html=1;shadow=0;labelBorderColor=none;strokeColor=#666666;fillColor=#f5f5f5;fontColor=#333333;" parent="w9Iu98WscyFDLbroQzuf-1" vertex="1">
                    <mxGeometry x="210" y="430" width="112.5" height="40" as="geometry"/>
                </mxCell>
                <mxCell id="75" value="value2" style="rounded=0;whiteSpace=wrap;html=1;shadow=0;labelBorderColor=none;strokeColor=#d79b00;fillColor=#ffe6cc;fontColor=#000000;" parent="w9Iu98WscyFDLbroQzuf-1" vertex="1">
                    <mxGeometry x="267.5" y="500" width="80" height="40" as="geometry"/>
                </mxCell>
                <mxCell id="76" value="value0" style="rounded=0;whiteSpace=wrap;html=1;shadow=0;labelBorderColor=none;strokeColor=#82b366;fillColor=#d5e8d4;fontColor=#000000;" parent="w9Iu98WscyFDLbroQzuf-1" vertex="1">
                    <mxGeometry x="347.5" y="500" width="80" height="40" as="geometry"/>
                </mxCell>
                <mxCell id="77" value="value1" style="rounded=0;whiteSpace=wrap;html=1;shadow=0;labelBorderColor=none;strokeColor=#82b366;fillColor=#d5e8d4;fontColor=#000000;" parent="w9Iu98WscyFDLbroQzuf-1" vertex="1">
                    <mxGeometry x="427.5" y="500" width="80" height="40" as="geometry"/>
                </mxCell>
                <mxCell id="78" value="" style="shape=flexArrow;endArrow=classic;html=1;curved=1;fillColor=#f5f5f5;strokeColor=#666666;" parent="w9Iu98WscyFDLbroQzuf-1" edge="1">
                    <mxGeometry width="50" height="50" relative="1" as="geometry">
                        <mxPoint x="387" y="410" as="sourcePoint"/>
                        <mxPoint x="387" y="490" as="targetPoint"/>
                    </mxGeometry>
                </mxCell>
            </root>
        </mxGraphModel>
    </diagram>
</mxfile>